# xmcd
#
# Track frame offsets:
#	150
#	15501
#	28060
#	46213
#	60497
#	75475
#	88168
#	100270
#	114451
#	127704
#	140327
#	151827
#
# Disc length: 2211 seconds
#
# Revision: 1
# Processed by: cddbd v1.5.2PL0 Copyright (c) Steve Scherf et al.
# Submitted via: audiograbber 1.83.01
#
DISCID=8608a10c
DTITLE=Tom Bråthen - Next To Nothin'
DYEAR=1900
DGENRE=Country
TTITLE0=Next To Nothin'
TTITLE1=Last Time
TTITLE2=There Qugth To Be A Song
TTITLE3=So You Wanna Be A Country Song
TTITLE4=There Wooden Crosses
TTITLE5=Time To Say Goodbye
TTITLE6=Donkeys Fly
TTITLE7=Lord I Hope This Day Is Good
TTITLE8=I'The Bottle On The Bar
TTITLE9=Fourteen Carat Mind
TTITLE10=Closing Time
TTITLE11=Loving You So Long Now
EXTD=
EXTT0=
EXTT1=
EXTT2=
EXTT3=
EXTT4=
EXTT5=
EXTT6=
EXTT7=
EXTT8=
EXTT9=
EXTT10=
EXTT11=
PLAYORDER=
